<svg width="64" height="84" viewBox="0 0 64 84" fill="none" xmlns="http://www.w3.org/2000/svg">
<path d="M11 84C8 84 5.41667 82.9833 3.25 80.95C1.08333 78.9167 0 76.4 0 73.4V17.6C0 15.0667 0.783333 12.8 2.35 10.8C3.91667 8.8 5.96667 7.53333 8.5 7L38.5 1.1C40.9667 0.566664 43.1667 1.1 45.1 2.7C47.0333 4.3 48 6.36666 48 8.9V56.6C48 58.5333 47.4 60.25 46.2 61.75C45 63.25 43.4667 64.1667 41.6 64.5L10.1 70.8C9.5 70.9333 9 71.25 8.6 71.75C8.2 72.25 8 72.8 8 73.4C8 74.1333 8.3 74.75 8.9 75.25C9.5 75.75 10.2 76 11 76H56V16C56 14.8667 56.3833 13.9167 57.15 13.15C57.9167 12.3833 58.8667 12 60 12C61.1333 12 62.0833 12.3833 62.85 13.15C63.6167 13.9167 64 14.8667 64 16V76C64 78.2 63.2167 80.0833 61.65 81.65C60.0833 83.2167 58.2 84 56 84H11ZM16.8 61.4C17.7333 61.2 18.5 60.7333 19.1 60C19.7 59.2667 20 58.4333 20 57.5V17.8C20 16.5333 19.5167 15.5 18.55 14.7C17.5833 13.9 16.4667 13.6333 15.2 13.9C14.2667 14.1 13.5 14.5667 12.9 15.3C12.3 16.0333 12 16.8667 12 17.8V57.5C12 58.7667 12.4833 59.8 13.45 60.6C14.4167 61.4 15.5333 61.6667 16.8 61.4Z" fill="black"/>
</svg>
